<svg width="8" height="11" viewBox="0 0 8 11" fill="none" xmlns="http://www.w3.org/2000/svg">
<path d="M7.40305 1.11086H5.85376V0.619802C5.85342 0.455527 5.788 0.298078 5.67184 0.181917C5.55568 0.065756 5.39823 0.000344756 5.23396 0H2.75888C2.59451 0.000201072 2.43692 0.0655488 2.32064 0.181725C2.20437 0.297902 2.13888 0.455432 2.13854 0.619802V1.11086H0.589247C0.433022 1.11103 0.283245 1.17317 0.172777 1.28364C0.0623093 1.3941 0.000172688 1.54388 0 1.70011V2.33698C0.000201403 2.4932 0.0623472 2.64296 0.172809 2.75342C0.283271 2.86388 0.433031 2.92603 0.589247 2.92623H0.596967V9.34618C0.597197 9.56363 0.683671 9.7721 0.837416 9.92586C0.991161 10.0796 1.19962 10.1661 1.41706 10.1664H6.57523C6.79268 10.1661 7.00114 10.0796 7.15488 9.92586C7.30863 9.7721 7.3951 9.56363 7.39533 9.34618V2.92623H7.40305C7.55926 2.92603 7.709 2.86388 7.81945 2.75341C7.92989 2.64295 7.99201 2.49319 7.99219 2.33698V1.70011C7.99204 1.54389 7.92993 1.39411 7.81948 1.28364C7.70903 1.17317 7.55926 1.11103 7.40305 1.11086ZM2.51912 0.619802C2.51932 0.556324 2.54466 0.495512 2.5896 0.450677C2.63453 0.405842 2.6954 0.380638 2.75888 0.38058H5.23341C5.2968 0.380781 5.35753 0.406049 5.40235 0.450869C5.44717 0.495688 5.47244 0.556418 5.47264 0.619802V1.11086H2.51912V0.619802ZM7.01475 9.34618C7.01463 9.46272 6.96829 9.57446 6.8859 9.65688C6.8035 9.7393 6.69177 9.78566 6.57523 9.78581H1.41706C1.30052 9.78566 1.1888 9.7393 1.1064 9.65688C1.024 9.57446 0.977663 9.46272 0.977548 9.34618V2.92623H7.01475V9.34618ZM7.61161 2.33698C7.61158 2.3923 7.5896 2.44534 7.5505 2.48446C7.51139 2.52358 7.45836 2.54559 7.40305 2.54565H0.589247C0.533923 2.54559 0.480881 2.52359 0.441761 2.48447C0.402641 2.44535 0.380638 2.39231 0.38058 2.33698V1.70011C0.380638 1.64478 0.402641 1.59174 0.441761 1.55262C0.480881 1.5135 0.533923 1.4915 0.589247 1.49144H7.40305C7.45836 1.4915 7.51139 1.5135 7.5505 1.55263C7.5896 1.59175 7.61158 1.64479 7.61161 1.70011V2.33698Z" fill="black"/>
<path d="M3.99595 8.51239C4.02095 8.5124 4.0457 8.50749 4.06879 8.49793C4.09189 8.48838 4.11287 8.47436 4.13054 8.45669C4.14821 8.43901 4.16223 8.41803 4.17179 8.39494C4.18135 8.37184 4.18626 8.34709 4.18624 8.3221V4.38951C4.18624 4.33904 4.1662 4.29064 4.13051 4.25495C4.09482 4.21927 4.04642 4.19922 3.99595 4.19922C3.94549 4.19922 3.89708 4.21927 3.8614 4.25495C3.82571 4.29064 3.80566 4.33904 3.80566 4.38951V8.3221C3.80566 8.37257 3.82571 8.42097 3.8614 8.45666C3.89708 8.49234 3.94549 8.51239 3.99595 8.51239Z" fill="black"/>
<path d="M5.66392 8.51239C5.71439 8.51239 5.76279 8.49234 5.79848 8.45666C5.83416 8.42097 5.85421 8.37257 5.85421 8.3221V4.38951C5.85421 4.33904 5.83416 4.29064 5.79848 4.25495C5.76279 4.21927 5.71439 4.19922 5.66392 4.19922C5.61345 4.19922 5.56505 4.21927 5.52937 4.25495C5.49368 4.29064 5.47363 4.33904 5.47363 4.38951V8.3221C5.47363 8.37257 5.49368 8.42097 5.52937 8.45666C5.56505 8.49234 5.61345 8.51239 5.66392 8.51239Z" fill="black"/>
<path d="M2.32896 8.51239C2.37943 8.51239 2.42783 8.49234 2.46352 8.45666C2.4992 8.42097 2.51925 8.37257 2.51925 8.3221V4.38951C2.51925 4.33904 2.4992 4.29064 2.46352 4.25495C2.42783 4.21927 2.37943 4.19922 2.32896 4.19922C2.27849 4.19922 2.23009 4.21927 2.19441 4.25495C2.15872 4.29064 2.13867 4.33904 2.13867 4.38951V8.3221C2.13867 8.37257 2.15872 8.42097 2.19441 8.45666C2.23009 8.49234 2.27849 8.51239 2.32896 8.51239Z" fill="black"/>
</svg>
