<svg width="26" height="24" viewBox="0 0 26 24" fill="none" xmlns="http://www.w3.org/2000/svg">
<path d="M18.85 0C16.5208 0.00362219 14.3389 1.1476 13 3.06672C11.6611 1.1476 9.47917 0.00362219 7.15 0C3.34098 0 0 3.56871 0 7.63643C0 11.6008 2.22295 15.6839 6.42891 19.4446C8.37764 21.1836 10.5153 22.6954 12.8011 23.9514C12.9259 24.0162 13.0741 24.0162 13.1989 23.9514C15.4838 22.6954 17.6209 21.1834 19.569 19.4446C23.7771 15.6839 26 11.6008 26 7.63643C26 3.56871 22.659 0 18.85 0ZM13 23.0676C11.4084 22.1832 0.866667 16.0041 0.866667 7.63643C0.866667 4.03342 3.80246 0.872735 7.15 0.872735C9.41781 0.876783 11.5083 2.10875 12.6225 4.09798C12.7059 4.22624 12.8479 4.30338 13 4.30338C13.1521 4.30338 13.2941 4.22624 13.3775 4.09798C14.4917 2.10875 16.5822 0.876783 18.85 0.872735C22.1975 0.872735 25.1333 4.03342 25.1333 7.63643C25.1333 16.0041 14.5916 22.1832 13 23.0676Z" fill="black"/>
</svg>
