<svg width="15" height="26" viewBox="0 0 15 26" fill="none" xmlns="http://www.w3.org/2000/svg">
<path d="M7.54159 0H0.491324C0.22014 0 0 0.22014 0 0.491324V25.5087C0 25.7799 0.22014 26 0.491324 26H7.54159C7.81277 26 8.03291 25.7799 8.03291 25.5087V0.491324C8.03291 0.22014 7.81277 0 7.54159 0ZM7.05026 3.3163H5.83677C5.56559 3.3163 5.34545 3.53644 5.34545 3.80763C5.34545 4.07881 5.56559 4.29895 5.83677 4.29895H7.05026V5.93992H5.83677C5.56559 5.93992 5.34545 6.16005 5.34545 6.43124C5.34545 6.70242 5.56559 6.92256 5.83677 6.92256H7.05026V8.57826H4.73134C4.46016 8.57826 4.24002 8.7984 4.24002 9.06958C4.24002 9.34077 4.46016 9.56091 4.73134 9.56091H7.05026V11.2019H5.83677C5.56559 11.2019 5.34545 11.422 5.34545 11.6932C5.34545 11.9644 5.56559 12.1845 5.83677 12.1845H7.05026V13.8304H5.83677C5.56559 13.8304 5.34545 14.0505 5.34545 14.3217C5.34545 14.5929 5.56559 14.813 5.83677 14.813H7.05026V16.4393H4.73134C4.46016 16.4393 4.24002 16.6594 4.24002 16.9306C4.24002 17.2018 4.46016 17.4219 4.73134 17.4219H7.05026V19.0629H5.83677C5.56559 19.0629 5.34545 19.283 5.34545 19.5542C5.34545 19.8254 5.56559 20.0455 5.83677 20.0455H7.05026V21.6865H5.83677C5.56559 21.6865 5.34545 21.9066 5.34545 22.1778C5.34545 22.449 5.56559 22.6691 5.83677 22.6691H7.05026V25.0028H0.982648V0.982648H7.05026V3.3163Z" fill="black" fill-opacity="0.8"/>
<path d="M13.6482 4.81976C13.9194 4.81976 14.1396 4.59962 14.1396 4.32844C14.1396 4.21144 14.0978 4.09795 14.0217 4.00902L12.5035 1.36576C12.3674 1.13106 12.0667 1.05143 11.832 1.18755C11.7577 1.23017 11.6963 1.29209 11.6537 1.36576L10.0864 4.08287C9.95077 4.31757 10.0313 4.61839 10.2662 4.75381C10.3414 4.79714 10.4268 4.82029 10.5138 4.81976H11.5898V21.1803H10.5138C10.2427 21.1792 10.0215 21.3985 10.0206 21.6697C10.0201 21.7567 10.043 21.8421 10.0864 21.9172L11.6537 24.6343C11.7898 24.869 12.0904 24.9486 12.3253 24.8125C12.3995 24.7699 12.4609 24.7079 12.5035 24.6343L14.0708 21.9172C14.2064 21.6825 14.1259 21.3816 13.891 21.2462C13.8158 21.2029 13.7303 21.1797 13.6433 21.1803H12.5674V4.81976H13.6482ZM12.7984 22.1629L12.0811 23.4059L11.3637 22.1629H12.7984ZM11.3637 3.83712L12.0811 2.59416L12.7984 3.83712H11.3637Z" fill="black" fill-opacity="0.8"/>
</svg>
