<svg width="23" height="23" viewBox="0 0 23 23" fill="none" xmlns="http://www.w3.org/2000/svg">
<path fill-rule="evenodd" clip-rule="evenodd" d="M8.79399 0C3.94106 0 0 3.94106 0 8.79399C0 13.6469 3.94106 17.588 8.79399 17.588C13.6469 17.588 17.588 13.6469 17.588 8.79399C17.588 3.94106 13.6469 0 8.79399 0ZM8.79399 1.35292C12.9015 1.35292 16.2351 4.68652 16.2351 8.79399C16.2351 12.9015 12.9015 16.2351 8.79399 16.2351C4.68652 16.2351 1.35292 12.9015 1.35292 8.79399C1.35292 4.68652 4.68652 1.35292 8.79399 1.35292Z" fill="black"/>
<path fill-rule="evenodd" clip-rule="evenodd" d="M22.8023 21.8439L15.0108 14.0538C14.747 13.79 14.3181 13.79 14.0543 14.0538C13.7905 14.3176 13.7905 14.7465 14.0543 15.0103L21.8444 22.8018C22.1096 23.0656 22.5371 23.0656 22.8023 22.8018C23.0661 22.5366 23.0661 22.1091 22.8023 21.8439Z" fill="black"/>
</svg>
